<?xml version="1.0" encoding="UTF-8" standalone="no"?><svg xmlns="http://www.w3.org/2000/svg" xmlns:xlink="http://www.w3.org/1999/xlink" contentScriptType="text/ecmascript" fill="#686161" width="336.1" zoomAndPan="magnify" contentStyleType="text/css" viewBox="-0.6 -0.8 336.1 332.1" height="332.1" preserveAspectRatio="xMidYMid meet" version="1"><g id="change1_1"><path d="m332.81,168.84c-.25-1.82-.49-3.54-.65-5.07.07-10.28-.39-23.71-4.59-36.57-1.89-10.05-7.69-10.41-15.64-9.83-6.29.08-12.81-.57-18.52-1.13-21.89-3.03-43.42-3.11-64.02-.26-5.24.8-10.9,1.33-17.29,1.61-.21-4.23-.46-8.14-.75-11.93-.37-3.97-.76-7.95-1.15-11.92-1.97-19.88-4-40.44-2.37-60.7,1.76-15.27,1.02-22.87-2.64-27.1-3.9-4.51-10.8-4.72-21.26-5.05-3.68-.11-7.86-.24-12.48-.57-11.32-1.08-22.15.69-32.28,2.6-.52,0-1.04-.03-1.57-.05-4.23-.15-9.02-.32-12.1,3.71-2.29,2.66-3.21,6.59-2.37,10.09-.45,2.2-.63,4.46-.8,6.64l-.12,1.52c-.29,4.03-.56,8.32-.55,12.57.13,8.68.44,17.5.73,26.02.28,8.15.57,16.57.71,24.88.45,12.27-.59,24.61-1.55,35.55-11.08,2.19-21.16,4-31.69,4.31-16.8-.2-34.32,1.13-56.75,4.38-2.63.32-5.44.24-8.41.15-6.77-.19-13.77-.4-18.99,4.34-1.46,1.23-2.28,3.22-2.29,5.5-2.32,3.99-2.95,8.84-3.28,13.44-.73,6.41,1.08,19.05,4.22,29.42,2.39,7.88,7.64,21.28,15.98,22.5h.15c9.35,0,18.82-1.22,27.98-2.39,5.23-.67,10.65-1.37,15.99-1.83,2.35-.29,3.7-2.51,3.96-4.75,6.89-.11,13.61.06,20.01.53,10.53.58,21.34.9,32.15.93.11,4.38.23,8.75.35,13.11.03,6.6-.1,13.31-.23,19.81-.28,14.33-.57,29.14.87,43.73l.39,2.98c1.48,11.34,3.01,23.08,5.55,34.46.37,6.56,1.53,9.97,3.99,11.78,2.43,1.79,6.11,1.89,12.25.34,8.45-1.64,17.26-1.2,25.79-.77,1.29.07,2.58.13,3.79.18,3.62.45,7.16,1.64,10.58,2.79,2.67.9,5.42,1.82,8.33,2.43.78.1,1.55.15,2.33.15,6.78,0,13.32-3.66,16.8-9.63,1.86-3.9,1.17-8.09.51-12.14-.2-1.21-.38-2.34-.51-3.51-1.82-12.04-2.78-24.29-2.85-36.48-.04-.53-.11-1.02-.22-1.51.12-4.23.32-8.04.6-11.65.5-8.2,1.29-16.52,2.05-24.57.92-9.78,1.88-19.88,2.33-29.87,8.26-.56,16.61-1.45,24.69-2.31,9.71-1.04,19.75-2.11,29.65-2.6,8.53-.39,17.21,0,25.61.38,8.49.38,17.28.78,25.97.37,4.89.3,8.62-.9,11.08-3.55,5.25-5.66,3.73-16.64,2.51-25.46Zm-12.38,11.9c-11.59.74-23.28,2.17-34.59,3.55-8.3,1.02-16.88,2.07-25.34,2.83-10.25-.17-20.66-1.08-30.72-1.97-5.37-.47-10.91-.96-16.39-1.33l-2.02-.13c-.64-.04-1.29-.08-1.93-.12-.62-.04-1.24-.07-1.85-.1l-1.82-.09c-.91-.04-1.82-.07-2.74-.11l-1-.04c-1.26-.04-2.53-.07-3.8-.08h-.93s-.08.91-.08.91c-.23,2.62-.44,5.25-.63,7.87l-.14,1.97c-.14,2.01-.26,4.02-.36,6.03l-.04.71c-.02.28-.04.56-.05.84l-.04,1.05h0c-.54,11.93-.41,22.65.39,32.81,1.36,10.38,2.1,21.33,2.28,33.48-.18.67-.26,1.37-.25,2.07.08,4.96,0,10.01-.06,14.9-.04,3.08-.09,6.15-.09,9.19-.2,4.72-.44,9.58-.76,14.86-2.22.08-4.44.32-6.6.56-2.22.25-4.52.5-6.79.56-.82.04-1.63.08-2.45.11-2.76.12-5.62.24-8.42.62-1.92.23-3.82.62-5.66.99-1.5.31-3.06.63-4.57.84-1.78.22-3.6.37-5.36.52-1.68.14-3.42.28-5.1.49-1.6.13-3.21.42-4.77.7-2.89.51-5.63,1-8.33.62-1.55-8.78-1.12-17.83-.71-26.59.1-2.13.2-4.26.28-6.41,0-5.43.18-10.95.34-16.29.09-3.09.19-6.18.25-9.29-.03-11.58-1.35-23.23-2.64-34.49-.68-5.97-1.38-12.14-1.88-18.17-.09-2.78-.09-5.67-.01-8.84l.03-.78c.03-1.13.08-2.26.13-3.39l.05-1.02c.07-1.34.15-2.69.24-4.03l.07-1.03-1.04-.03c-1.97-.06-3.95-.14-5.93-.22l-1.08-.04c-1.98-.08-3.96-.16-5.94-.24h-.26c-10.22-.38-18.81-.45-27.52.48-8,.71-16.05,1.97-23.83,3.18-5.01.78-10.2,1.59-15.31,2.25-10.46-.14-20.69-.24-30.9.15-.29,0-.58.04-.87.09-1.72-14.47-3.88-26.43-6.78-37.54-.43-1.77-.45-3.6-.43-5.53,20.49.67,41.09-2.14,61.02-4.84,14.71-2,29.91-4.06,44.93-4.71,1.43-.06,2.87-.11,4.3-.15l1.33-.03c1.56-.03,3.13-.05,4.62-.05,1.77.1,3.54.18,5.31.25l1.06.04-.02-1.06c-.02-1.24-.06-2.47-.09-3.7l-.03-.75c-.03-.98-.07-1.96-.11-2.94l-.04-.99c-.04-.9-.08-1.8-.13-2.7l-.06-1.11c-.05-.87-.1-1.74-.16-2.61l-.14-1.99h0c-.25-3.36-.55-6.48-.92-9.5-1.76-15.88-2.56-28.01-2.59-39.32.05-4.94.35-9.97.64-14.83.44-7.3.89-14.85.5-22.31l-.12-2.58c-.12-2.51-.24-5.02-.33-7.52,7.32,1.53,15.51.73,22.19.08,5.75-.66,11.31-2.14,16.69-3.57,7.64-2.04,14.87-3.98,22.73-3.8,2.29,16.37,1.16,33.14.07,49.36-.79,11.73-1.6,23.86-1.13,35.8.32,5.83.86,11.57,1.35,16.41l.12,1.17c.2,1.93.4,3.87.61,5.8l.11,1.03c.27,2.58.54,5.17.79,7.76l.1,1.02,1.02-.12c1.98-.24,3.95-.49,5.93-.75l2.18-.29c1.32-.18,2.65-.36,3.96-.55l1.09-.16c3.2-.46,6.32-.93,9.29-1.4,6.44-.29,13.02-.09,19.38.11,8.87.28,18.05.57,27.09-.5,7.18-.9,14.67-1.7,22.89-2.44,3.38-.29,6.79-.93,10.08-1.54,5.75-1.07,11.69-2.18,17.51-1.45,2.56,10.28,2.12,21.22,1.68,31.81-.3,7.34-.61,14.92.07,22.29Z"/></g></svg>