<?xml version="1.0" encoding="UTF-8" standalone="no"?><svg xmlns="http://www.w3.org/2000/svg" xmlns:xlink="http://www.w3.org/1999/xlink" contentScriptType="text/ecmascript" fill="#686161" width="99" zoomAndPan="magnify" contentStyleType="text/css" viewBox="3.9 6.4 99.0 97.1" height="97.1" data-name="Layer 1" preserveAspectRatio="xMidYMid meet" version="1"><g id="change1_1"><path d="M14.69,103.47a1,1,0,0,1-.64-.23,1,1,0,0,1-.36-.91L16.05,85a38.62,38.62,0,1,1,17,12L15,103.41A1,1,0,0,1,14.69,103.47ZM45.94,23.79A36.69,36.69,0,0,0,17.87,84.08a1,1,0,0,1,.22.78L15.9,101l16.84-6a1.06,1.06,0,0,1,.68,0,36.25,36.25,0,0,0,12.52,2.21,36.69,36.69,0,0,0,0-73.38Z"/></g><g id="change1_2"><path d="M62.54,80H43.19a7.57,7.57,0,0,1-2.42-.39,31.43,31.43,0,0,1-5.6-2.43,1,1,0,0,1-.5-.87V59a1,1,0,0,1,.73-1,8.47,8.47,0,0,0,1.79-.72l.59-.33c5.57-3.31,9.68-11.4,9.4-12.93a1.09,1.09,0,0,1,0-.18,28.81,28.81,0,0,1,.28-4.25,4.25,4.25,0,0,1,1.78-2.19c1.46-.89,3.08-.57,4.43.88a6.72,6.72,0,0,1,1.73,5.23l-.91,10.16.09.1H67.29a4.08,4.08,0,0,1,4.1,3.74,4,4,0,0,1-2,3.74,4,4,0,0,1-.23,5.41,4.16,4.16,0,0,1-1.37.91,4,4,0,0,1-1.94,6.09,4,4,0,0,1,.69,2.25,4,4,0,0,1-1.18,2.84A4,4,0,0,1,62.54,80ZM36.67,75.67a30.34,30.34,0,0,0,4.73,2,5.64,5.64,0,0,0,1.79.29H62.54a2,2,0,1,0,0-4,1,1,0,1,1,0-2h2A2,2,0,0,0,66,71.32a2,2,0,0,0-1.42-3.45,1,1,0,0,1,0-2h1.81a2,2,0,0,0,1.42-.59,2,2,0,0,0-1.42-3.45,1,1,0,0,1,0-2h1a2,2,0,0,0,1.42-.59,2,2,0,0,0,.6-1.58,2.08,2.08,0,0,0-2.11-1.87H54.57a2.09,2.09,0,0,1-2.09-2.28l.92-10.16a4.74,4.74,0,0,0-1.2-3.69c-1-1.09-1.64-.71-1.93-.53a2.2,2.2,0,0,0-.94,1.17c-.08.34-.16,2.74-.16,3.49.37,3-4.61,11.47-10.39,14.91l-.62.35a9.6,9.6,0,0,1-1.49.66Z"/></g><g id="change1_3"><path d="M66.34,61.83H58.11a1,1,0,0,1,0-2h8.23a1,1,0,0,1,0,2Z"/></g><g id="change1_4"><path d="M64.53,67.87H58.11a1,1,0,0,1,0-2h6.42a1,1,0,0,1,0,2Z"/></g><g id="change1_5"><path d="M62.54,73.91H58.11a1,1,0,1,1,0-2h4.43a1,1,0,0,1,0,2Z"/></g><g id="change1_6"><path d="M35.67,80.44H24.12a1,1,0,0,1-1-1V56.09a1,1,0,0,1,1-1H35.67a1,1,0,0,1,1,1V79.44A1,1,0,0,1,35.67,80.44Zm-10.55-2h9.55V57.09H25.12Z"/></g><g id="change1_7"><path d="M64.68,22.74a1.71,1.71,0,0,1-1.47-.83l-1.89-3.16-3.67-.23a1.72,1.72,0,0,1-1.19-2.85l2.41-2.77L58,9.34a1.72,1.72,0,0,1,.55-1.73,1.7,1.7,0,0,1,1.79-.28l3.38,1.44,3.11-2a1.71,1.71,0,0,1,2.63,1.6l-.32,3.67,2.83,2.34a1.72,1.72,0,0,1,.58,1.73,1.69,1.69,0,0,1-1.29,1.27l-3.58.83-1.36,3.42a1.72,1.72,0,0,1-1.46,1.08Zm-6.34-6.18,3.25.21A1.69,1.69,0,0,1,63,17.6l1.67,2.79,1.2-3a1.74,1.74,0,0,1,1.21-1l3.18-.73-2.51-2.07A1.73,1.73,0,0,1,67.09,12l.29-3.25-2.75,1.75a1.72,1.72,0,0,1-1.59.13L60,9.39l.81,3.16a1.71,1.71,0,0,1-.37,1.55ZM70.66,16h0Z"/></g><g id="change1_8"><path d="M90.68,55.09a1.73,1.73,0,0,1-1.7-2l.49-3.65L86.74,47a1.71,1.71,0,0,1,.85-3l3.61-.66L92.71,40a1.7,1.7,0,0,1,1.51-1,1.68,1.68,0,0,1,1.57.9l1.75,3.23,3.66.4a1.72,1.72,0,0,1,1.43,1.12,1.74,1.74,0,0,1-.37,1.78h0l-2.54,2.66.75,3.6A1.72,1.72,0,0,1,98,54.62L94.73,53l-3.19,1.83A1.79,1.79,0,0,1,90.68,55.09ZM88.5,45.92l2.42,2.19a1.73,1.73,0,0,1,.55,1.5L91,52.84l2.83-1.62a1.74,1.74,0,0,1,1.6-.06l2.94,1.41-.67-3.19a1.72,1.72,0,0,1,.44-1.54l2.25-2.35-3.24-.35a1.73,1.73,0,0,1-1.33-.9L94.3,41.38l-1.33,3a1.73,1.73,0,0,1-1.26,1Zm13-.15h0Z"/></g><g id="change1_9"><path d="M85.87,36.62a2.07,2.07,0,0,1-.35,0,2,2,0,0,1-1.64-1.45l-1.65-5.48-5.49-1.8a2.07,2.07,0,0,1-.55-3.68l4.71-3.26V15.14a2.06,2.06,0,0,1,1.15-1.86,2,2,0,0,1,2.18.21L88.79,17l5.51-1.77a2.07,2.07,0,0,1,2.6,2.66L95,23.24l3.39,4.68a2.07,2.07,0,0,1,.16,2.19,2,2,0,0,1-1.88,1.11L91,31.09l-3.41,4.67A2.07,2.07,0,0,1,85.87,36.62ZM77.35,26l5.45,1.75a2.09,2.09,0,0,1,1.35,1.38l1.64,5.48.95.61-.82-.59L89.27,30A2,2,0,0,1,91,29.09l5.72.13.87-.71-.81.59-3.37-4.61a2.08,2.08,0,0,1-.29-1.91l1.9-5.4h0a.09.09,0,0,0,0-.08l-5.51,1.76a2.05,2.05,0,0,1-1.91-.32L83,15.08l-1.12.06h1l0,5.72a2.09,2.09,0,0,1-.9,1.71l-4.7,3.25L77,26.91Z"/></g></svg>