<?xml version="1.0" encoding="UTF-8" standalone="no"?><svg xmlns="http://www.w3.org/2000/svg" xmlns:xlink="http://www.w3.org/1999/xlink" contentScriptType="text/ecmascript" fill="#444444" width="23" zoomAndPan="magnify" contentStyleType="text/css" viewBox="0.5 0.5 23.0 23.0" height="23" preserveAspectRatio="xMidYMid meet" version="1"><g id="change1_1" data-name="Layer 2"><path fill="inherit" d="M12,23.5A11.5,11.5,0,1,1,23.5,12,11.5134,11.5134,0,0,1,12,23.5Zm0-22A10.5,10.5,0,1,0,22.5,12,10.5115,10.5115,0,0,0,12,1.5Z"/></g><g id="change1_2" data-name="Layer 3"><path fill="inherit" d="M17.4967,10.79l-.0012-.0012-5.142-5.142a.5.5,0,0,0-.707,0l-5.142,5.142-.0012.0012-.8568.8568a.5.5,0,0,0,.707.707l.0039-.0039V17a1.5017,1.5017,0,0,0,1.5,1.5H10a.5.5,0,0,0,.5-.5V15a1.5,1.5,0,0,1,3,0v3a.5.5,0,0,0,.5.5h2.1426a1.5017,1.5017,0,0,0,1.5-1.5V12.35l.0039.0039a.5.5,0,0,0,.707-.707ZM16.6426,17a.501.501,0,0,1-.5.5H14.5V15a2.5,2.5,0,0,0-5,0v2.5H7.8574a.501.501,0,0,1-.5-.5V11.35L12,6.707,16.6426,11.35Z"/></g></svg>