<?xml version="1.0" encoding="UTF-8" standalone="no"?><svg xmlns="http://www.w3.org/2000/svg" xmlns:xlink="http://www.w3.org/1999/xlink" contentScriptType="text/ecmascript" fill="#000000" width="100" zoomAndPan="magnify" contentStyleType="text/css" viewBox="0.0 0.0 100.0 100.0" height="100" preserveAspectRatio="xMidYMid meet" version="1"><g fill="#686161" id="change1_1"><path fill="inherit" d="M 50 25.234375 C 36.34375 25.234375 25.238281 36.34375 25.238281 50 C 25.238281 63.65625 36.34375 74.765625 50 74.765625 C 63.65625 74.765625 74.761719 63.65625 74.761719 50 C 74.761719 36.34375 63.65625 25.234375 50 25.234375 Z M 50 77.253906 C 34.972656 77.253906 22.746094 65.027344 22.746094 50 C 22.746094 34.972656 34.972656 22.746094 50 22.746094 C 65.027344 22.746094 77.253906 34.972656 77.253906 50 C 77.253906 65.027344 65.027344 77.253906 50 77.253906"/><path fill="inherit" d="M 28.203125 83.953125 C 29.203125 83.953125 30.207031 84.195312 31.121094 84.691406 C 33.570312 86.027344 36.164062 87.101562 38.832031 87.886719 C 41.421875 88.652344 43.230469 91.085938 43.230469 93.808594 C 43.230469 95.847656 44.890625 97.511719 46.929688 97.511719 L 53.070312 97.511719 C 55.109375 97.511719 56.769531 95.847656 56.769531 93.808594 C 56.769531 91.085938 58.578125 88.652344 61.167969 87.886719 C 63.839844 87.101562 66.433594 86.027344 68.878906 84.691406 C 71.257812 83.398438 74.261719 83.835938 76.1875 85.761719 C 76.195312 85.769531 76.207031 85.78125 76.214844 85.789062 C 77.660156 87.207031 79.988281 87.199219 81.425781 85.765625 L 85.765625 81.425781 C 86.464844 80.726562 86.847656 79.796875 86.847656 78.808594 C 86.847656 77.820312 86.464844 76.890625 85.765625 76.191406 C 85.753906 76.179688 85.746094 76.167969 85.734375 76.160156 C 83.832031 74.234375 83.402344 71.246094 84.691406 68.878906 C 86.027344 66.429688 87.101562 63.835938 87.890625 61.167969 C 88.648438 58.578125 91.085938 56.769531 93.808594 56.769531 C 95.847656 56.769531 97.511719 55.109375 97.511719 53.070312 L 97.511719 46.929688 C 97.511719 44.890625 95.847656 43.230469 93.808594 43.230469 C 91.085938 43.230469 88.648438 41.421875 87.890625 38.832031 C 87.101562 36.164062 86.027344 33.570312 84.691406 31.121094 C 83.402344 28.757812 83.832031 25.773438 85.730469 23.84375 C 85.742188 23.835938 85.753906 23.820312 85.765625 23.808594 C 86.464844 23.109375 86.847656 22.179688 86.847656 21.191406 C 86.847656 20.203125 86.464844 19.273438 85.765625 18.574219 L 81.425781 14.234375 C 79.988281 12.800781 77.65625 12.792969 76.210938 14.214844 C 76.203125 14.222656 76.195312 14.230469 76.1875 14.238281 C 74.261719 16.164062 71.253906 16.601562 68.878906 15.308594 C 66.429688 13.972656 63.835938 12.898438 61.167969 12.109375 C 58.578125 11.347656 56.769531 8.914062 56.769531 6.191406 C 56.769531 4.152344 55.109375 2.488281 53.070312 2.488281 L 46.929688 2.488281 C 44.890625 2.488281 43.230469 4.152344 43.230469 6.191406 C 43.230469 8.914062 41.421875 11.347656 38.832031 12.109375 C 36.164062 12.898438 33.570312 13.972656 31.121094 15.308594 C 28.746094 16.601562 25.738281 16.164062 23.8125 14.238281 C 23.804688 14.230469 23.796875 14.222656 23.789062 14.214844 C 22.34375 12.792969 20.011719 12.800781 18.574219 14.234375 L 14.234375 18.574219 C 13.535156 19.273438 13.152344 20.203125 13.152344 21.191406 C 13.152344 22.179688 13.535156 23.109375 14.234375 23.808594 C 14.25 23.820312 14.261719 23.835938 14.273438 23.847656 C 16.167969 25.773438 16.597656 28.757812 15.308594 31.121094 C 13.972656 33.570312 12.898438 36.164062 12.113281 38.832031 C 11.347656 41.421875 8.914062 43.230469 6.191406 43.230469 C 4.152344 43.230469 2.488281 44.890625 2.488281 46.929688 L 2.488281 53.070312 C 2.488281 55.109375 4.152344 56.769531 6.191406 56.769531 C 8.914062 56.769531 11.347656 58.578125 12.113281 61.167969 C 12.898438 63.835938 13.972656 66.429688 15.308594 68.878906 C 16.597656 71.246094 16.167969 74.234375 14.265625 76.160156 C 14.253906 76.171875 14.246094 76.179688 14.234375 76.191406 C 13.535156 76.890625 13.152344 77.820312 13.152344 78.808594 C 13.152344 79.796875 13.535156 80.726562 14.234375 81.425781 L 18.574219 85.765625 C 20.011719 87.199219 22.339844 87.207031 23.785156 85.789062 C 23.792969 85.78125 23.804688 85.769531 23.8125 85.761719 C 25 84.574219 26.59375 83.953125 28.203125 83.953125 Z M 53.070312 100 L 46.929688 100 C 43.515625 100 40.738281 97.222656 40.738281 93.808594 C 40.738281 92.179688 39.664062 90.730469 38.128906 90.277344 C 35.292969 89.441406 32.53125 88.296875 29.929688 86.878906 C 28.523438 86.113281 26.75 86.367188 25.597656 87.496094 C 25.589844 87.507812 25.582031 87.515625 25.570312 87.527344 C 23.15625 89.941406 19.230469 89.941406 16.816406 87.527344 L 12.476562 83.183594 C 11.304688 82.015625 10.660156 80.460938 10.660156 78.808594 C 10.660156 77.164062 11.296875 75.621094 12.449219 74.453125 C 12.457031 74.445312 12.46875 74.433594 12.476562 74.425781 C 13.628906 73.277344 13.894531 71.484375 13.121094 70.070312 C 11.703125 67.464844 10.558594 64.707031 9.722656 61.871094 C 9.269531 60.335938 7.820312 59.261719 6.191406 59.261719 C 2.777344 59.261719 0 56.484375 0 53.070312 L 0 46.929688 C 0 43.515625 2.777344 40.738281 6.191406 40.738281 C 7.820312 40.738281 9.269531 39.664062 9.722656 38.128906 C 10.558594 35.292969 11.703125 32.535156 13.121094 29.929688 C 13.894531 28.515625 13.628906 26.722656 12.476562 25.574219 C 12.464844 25.5625 12.453125 25.550781 12.441406 25.535156 C 11.292969 24.371094 10.660156 22.832031 10.660156 21.191406 C 10.660156 19.539062 11.304688 17.984375 12.476562 16.816406 L 16.816406 12.472656 C 19.230469 10.058594 23.15625 10.058594 25.570312 12.472656 C 25.578125 12.480469 25.585938 12.488281 25.59375 12.496094 C 26.746094 13.632812 28.523438 13.886719 29.929688 13.121094 C 32.53125 11.703125 35.289062 10.558594 38.128906 9.722656 C 39.664062 9.269531 40.738281 7.820312 40.738281 6.191406 C 40.738281 2.777344 43.515625 0 46.929688 0 L 53.070312 0 C 56.484375 0 59.261719 2.777344 59.261719 6.191406 C 59.261719 7.820312 60.335938 9.269531 61.871094 9.722656 C 64.710938 10.558594 67.46875 11.703125 70.070312 13.121094 C 71.476562 13.886719 73.253906 13.632812 74.40625 12.496094 C 74.414062 12.488281 74.421875 12.480469 74.429688 12.472656 C 76.84375 10.058594 80.769531 10.058594 83.183594 12.472656 L 87.523438 16.816406 C 88.695312 17.984375 89.339844 19.539062 89.339844 21.191406 C 89.339844 22.832031 88.707031 24.371094 87.558594 25.539062 C 87.546875 25.550781 87.535156 25.5625 87.523438 25.574219 C 86.371094 26.722656 86.109375 28.515625 86.878906 29.925781 C 88.296875 32.53125 89.441406 35.289062 90.277344 38.128906 C 90.730469 39.667969 92.179688 40.738281 93.808594 40.738281 C 97.222656 40.738281 100 43.515625 100 46.929688 L 100 53.070312 C 100 56.484375 97.222656 59.261719 93.808594 59.261719 C 92.179688 59.261719 90.730469 60.332031 90.277344 61.871094 C 89.441406 64.710938 88.296875 67.46875 86.878906 70.070312 C 86.109375 71.484375 86.371094 73.277344 87.523438 74.425781 C 87.53125 74.4375 87.542969 74.445312 87.550781 74.457031 C 88.703125 75.621094 89.339844 77.164062 89.339844 78.808594 C 89.339844 80.460938 88.695312 82.015625 87.523438 83.183594 L 83.1875 87.527344 C 80.769531 89.941406 76.84375 89.941406 74.429688 87.527344 C 74.417969 87.515625 74.410156 87.507812 74.402344 87.496094 C 73.25 86.367188 71.472656 86.113281 70.070312 86.878906 C 67.46875 88.296875 64.710938 89.441406 61.871094 90.277344 C 60.335938 90.730469 59.261719 92.179688 59.261719 93.808594 C 59.261719 97.222656 56.484375 100 53.070312 100"/></g></svg>