<?xml version="1.0" encoding="UTF-8" standalone="no"?><svg xmlns="http://www.w3.org/2000/svg" xmlns:xlink="http://www.w3.org/1999/xlink" contentScriptType="text/ecmascript" fill="#686161" width="18.8" zoomAndPan="magnify" contentStyleType="text/css" viewBox="0.0 0.3 18.8 18.8" height="18.8" preserveAspectRatio="xMidYMid meet" version="1"><g id="change1_1"><path fill="inherit" d="M 18.75 9.625 C 18.75 14.800781 14.550781 19 9.375 19 C 4.199219 19 0 14.800781 0 9.625 C 0 4.449219 4.199219 0.25 9.375 0.25 C 14.550781 0.25 18.75 4.449219 18.75 9.625 Z M 0.75 9.625 C 0.75 14.386719 4.613281 18.25 9.375 18.25 C 14.136719 18.25 18 14.386719 18 9.625 C 18 4.863281 14.136719 1 9.375 1 C 4.613281 1 0.75 4.863281 0.75 9.625 Z M 0.75 9.625"/><path fill="inherit" d="M 9.375 11.5 C 7.097656 11.5 5.25 9.652344 5.25 7.375 C 5.25 5.097656 7.097656 3.25 9.375 3.25 C 11.652344 3.25 13.5 5.097656 13.5 7.375 C 13.5 9.652344 11.652344 11.5 9.375 11.5 Z M 9.375 10.75 C 11.238281 10.75 12.75 9.238281 12.75 7.375 C 12.75 5.511719 11.238281 4 9.375 4 C 7.511719 4 6 5.511719 6 7.375 C 6 9.238281 7.511719 10.75 9.375 10.75 Z M 9.375 10.75" fill-rule="evenodd"/><path fill="inherit" d="M 6.75 13.75 L 12 13.75 C 13.738281 13.75 14.984375 14.335938 15.765625 15.3125 C 15.894531 15.472656 16.132812 15.5 16.292969 15.367188 C 16.457031 15.238281 16.480469 15.003906 16.351562 14.84375 C 15.425781 13.6875 13.964844 13 12 13 L 6.75 13 C 4.785156 13 3.324219 13.6875 2.398438 14.84375 C 2.269531 15.003906 2.292969 15.238281 2.457031 15.367188 C 2.617188 15.5 2.855469 15.472656 2.984375 15.3125 C 3.765625 14.335938 5.011719 13.75 6.75 13.75 Z M 6.75 13.75"/></g></svg>